<svg width="1920" height="516" viewBox="0 0 1920 516" fill="none" xmlns="http://www.w3.org/2000/svg">
<path fill-rule="evenodd" clip-rule="evenodd" d="M419.753 433.368C396.174 433.368 379.246 438.262 361.104 448.754C359.437 449.717 357.746 450.652 355.965 451.675C340.435 460.593 327.433 472.566 313.393 483.084C310.09 485.556 307.092 487.512 303.416 489.955C289.483 499.215 274.785 506.426 258.471 510.958C239.387 516.261 219.725 516.132 200.124 511.168C169.411 503.39 149.503 487.412 126.437 469.096C102.471 450.064 75.7228 433.368 41.9858 433.368C26.5843 433.368 12.8551 437.537 0 443.969V8.66515C48.7004 -9.16545 94.4362 3.89643 139.753 37.8083C143.04 40.2674 145.773 42.1992 148.912 44.7642C173.444 64.8009 195.448 81.8816 231.236 81.8816C257.099 81.8816 282.559 65.7956 300.419 51.407L314.291 40.3769C340.576 18.5981 381.412 0 416.086 0C453.81 0 481.916 15.7953 510.566 35.2374C526.984 46.3793 551.672 71.2364 576.695 79.7132C589.016 83.0058 601.913 83.3213 615.374 79.3142C628.136 75.0893 664.582 49.6295 676.804 40.5229C687.482 32.5664 692.399 29.1762 703.948 22.2497C763.362 -13.3868 817.884 -2.55093 871.818 37.8083C875.105 40.2674 877.838 42.1992 880.977 44.7642C905.508 64.8009 927.513 81.8816 963.3 81.8816C989.164 81.8816 1014.62 65.7956 1032.48 51.407L1046.36 40.3769C1072.64 18.5981 1113.48 0 1148.15 0C1185.88 0 1213.98 15.7953 1242.63 35.2374C1257.6 45.3964 1279.45 66.961 1302.15 77.1117C1342.4 92.2713 1379.04 63.8356 1410.34 40.5229C1421.01 32.5664 1425.93 29.1762 1437.48 22.2497C1496.89 -13.3868 1551.42 -2.55093 1605.35 37.8083C1608.64 40.2674 1611.37 42.1992 1614.51 44.7642C1639.04 64.8009 1661.04 81.8816 1696.83 81.8816C1722.7 81.8816 1748.16 65.7956 1766.02 51.407L1779.89 40.3769C1806.17 18.5981 1847.01 0 1881.68 0C1895.59 0 1908.19 2.15069 1920 5.83641V441.064C1908.58 436.436 1896.63 433.368 1885.35 433.368C1861.77 433.368 1844.84 438.262 1826.7 448.754C1825.03 449.717 1823.34 450.652 1821.56 451.675C1806.03 460.593 1793.03 472.566 1778.99 483.084C1775.69 485.556 1772.69 487.512 1769.01 489.955C1755.08 499.215 1740.38 506.426 1724.07 510.958C1704.99 516.261 1685.32 516.132 1665.72 511.168C1635.01 503.39 1615.1 487.412 1592.03 469.096C1568.07 450.064 1541.32 433.368 1507.58 433.368C1448 433.368 1413.41 495.663 1357.8 510.719L1357.03 510.924C1336.75 517.865 1317.44 516.796 1298.97 510.625C1291.86 508.4 1284.64 505.378 1277.01 501.607C1246.82 486.699 1243.44 476.429 1221.81 460.84C1203.28 447.474 1176.02 433.368 1151.82 433.368C1128.24 433.368 1111.31 438.262 1093.17 448.754C1091.5 449.717 1089.81 450.652 1088.03 451.675C1072.5 460.593 1059.5 472.566 1045.46 483.084C1042.16 485.556 1039.16 487.512 1035.48 489.955C1021.55 499.215 1006.85 506.426 990.536 510.958C971.452 516.261 951.79 516.132 932.189 511.168C901.476 503.39 881.568 487.412 858.502 469.096C834.536 450.064 807.788 433.368 774.05 433.368C716.903 433.368 682.748 490.665 630.982 508.636C613.046 516.128 595.853 517.248 579.331 513.95C533.731 506.519 521.509 483.741 489.75 460.84C471.213 447.474 443.952 433.368 419.753 433.368Z" fill="#FFF6D1"/>
</svg>
